<svg xmlns="http://www.w3.org/2000/svg" viewBox="0 0 84 49.11"><defs><style>.cls-1{fill:#dbdbdb;}</style></defs><g id="圖層_2" data-name="圖層 2"><g id="圖層_1-2" data-name="圖層 1"><rect width="84" height="49.11"/><path class="cls-1" d="M43.66,12.74a2.26,2.26,0,0,1-1.14.59V33.09c0,2.42-.54,3.78-4.6,4.15a4.35,4.35,0,0,0-.77-2.53,3.83,3.83,0,0,0-2.64-1.22v-.4s3.15.2,3.8.2c.49,0,.63-.2.63-.6V27.23c-.09.26-.28.46-.8.54v3.84c0,.2-1.13.6-2.07.6h-.46V31.07H33.88V35c0,.22-1.22.68-2.3.68h-.49v-9h.09l-.91-2a4.47,4.47,0,0,0,.65-.17,10.91,10.91,0,0,0,2.48-1.67l-2.08.59a1.29,1.29,0,0,1-.57.57l-.88-1.9a1.68,1.68,0,0,1-.62-.09c-.4.34-.88.71-1.4,1.11l0,0c4.15,1.76,2.11,4.69.6,3.27,0-.28-.06-.57-.11-.88-1.08.4-2.82,1-4.52,1.51l2.7.28c-.06.37-.29.6-.91.71v2.25h1.59a6.69,6.69,0,0,0,0-.77V26.72l3.61.34c-.06.37-.26.63-.91.71v1.77c-.09,2.38-1.14,5.14-6.63,6.59l-.25-.31c2.7-1.28,3.72-3,4-4.78H25.86l-.93,1.31L22,30.7a3.86,3.86,0,0,1,1-.77V27.35l-1-2.22a3.81,3.81,0,0,0,.66-.2,10.61,10.61,0,0,0,2.58-2.05l-1.9.54a1,1,0,0,1-.54.52l-1-2.22a5,5,0,0,0,.56-.17,9.64,9.64,0,0,0,3-3.5l.62.34v-.34H21.51V35.82c0,.45-1.33,1.33-3,1.33H18V10.38l3.67,1.56h4.18l1.5-1.59,3.13,2.33a1.81,1.81,0,0,1-1,.54v5a5,5,0,0,1-2.31.74l1.23.68a.72.72,0,0,1-.49.34l2.31,1.65a.22.22,0,0,0,.14-.06,7.33,7.33,0,0,0,2.27-2.5,5.91,5.91,0,0,1-1,.12h-.48V10.55l3.58,1.39h4l1.62-1.88Zm-22.15,0v1.93h4.58V12.74Zm4.58,4.52v-1.8H21.51v1.8Zm.26,4.46A20.49,20.49,0,0,0,27.63,20a2,2,0,0,1-.4-.06,19.13,19.13,0,0,1-2.87,1.77C25,21.75,25.67,21.75,26.35,21.72Zm1.22,1.59a28.69,28.69,0,0,1-3,1.79c1.06-.06,2.31-.11,3.58-.2A9.09,9.09,0,0,0,27.57,23.31Zm11.37,3.81V18H34.53v.15c0,.11-.2.28-.54.45l2,1.11c-.11.25-.45.45-1.08.34a18.43,18.43,0,0,1-2.67,1.7c.71,0,1.51,0,2.3,0a17.32,17.32,0,0,0,1.68-1.91l2.62,1.93a.91.91,0,0,1-1.11.2,27.17,27.17,0,0,1-4.86,2.79c1-.06,2.33-.11,3.66-.2a13.15,13.15,0,0,0-.45-1.28l.34-.14c4,1.93,1.85,4.78.37,3.3a6.61,6.61,0,0,0-.11-1.23c-1.2.4-3,1-4.81,1.54l3.07.28c0,.4-.31.69-1,.8v2.44h1.73V26.81ZM34.53,12.74v1.93h4.41V12.74Zm0,2.72v1.77h4.41V15.46Z"/><path class="cls-1" d="M50.68,20.44V35.79c0,.51-1.5,1.51-3.32,1.51H46.7V10.94l4.1,1.71h3l1.65-1.76,3.38,2.53a1.64,1.64,0,0,1-1,.54v7.3a6.39,6.39,0,0,1-3.07.86H54.1V20.44Zm0-7v2.67H54.1V13.45Zm3.42,6.19V16.91H50.68v2.73Zm8.15,12.08c.06,2.34-.51,4.1-4.2,4.41a5.6,5.6,0,0,0-.46-2.59c-.31-.56-.79-1-2.1-1.19V32s2.19.14,2.76.14c.39,0,.48-.14.48-.45l-.06-2.93a20.7,20.7,0,0,1-7.42,4.66L51,33.06a17.13,17.13,0,0,0,5.6-7.16H51.76l-.22-.8h7.08L58.56,22l4.6.4c0,.4-.28.68-1,.8l0,1.9h.09l1.47-2.24s1.68,1.56,2.62,2.58c-.06.31-.34.46-.74.46H62.17Zm9.58-18.25a1.89,1.89,0,0,1-1.13.6V32.78c0,2.67-.54,4.12-4.67,4.46a6.54,6.54,0,0,0-.51-2.84,2.6,2.6,0,0,0-2-1.28v-.37s2.14.14,2.65.14.51-.23.51-.54V20.44h-3.5v.25c0,.35-1.67,1.2-3.27,1.2h-.54V11.14l3.93,1.51h3.1l1.79-2.05Zm-8.67,0v2.67h3.5V13.45Zm3.5,6.19V16.91h-3.5v2.73Z"/></g></g></svg>