<svg xmlns="http://www.w3.org/2000/svg" viewBox="0 0 37.16 28.06"><g id="圖層_2" data-name="圖層 2"><g id="圖層_1-2" data-name="圖層 1"><path d="M16.11,28.05l6.59-.5A10.3,10.3,0,0,0,29,24.73l4.81-.37a2.69,2.69,0,0,0,1.82-1.05,6,6,0,0,0,1-2,16,16,0,0,0,.49-5.72A15.59,15.59,0,0,0,35.75,10,6.15,6.15,0,0,0,34.47,8.2a2.65,2.65,0,0,0-2-.75l-4.73.36a15,15,0,0,0-3-1.84c-3.33-1.57-6.16-3.45-8.5-4.69A10.7,10.7,0,0,0,13,0,3.18,3.18,0,0,0,10.1,1a3.36,3.36,0,0,0-.76,2.37,6.6,6.6,0,0,0,1.71,3.5l.12.14-7.69.58a3.84,3.84,0,0,0,.58,7.66l4-.3a3.25,3.25,0,0,0,0,.7A3.9,3.9,0,0,0,9.72,18.6a3.9,3.9,0,0,0-.23,1.53,3.84,3.84,0,0,0,2.65,3.36,4.13,4.13,0,0,0-.09,1A3.83,3.83,0,0,0,16.11,28.05ZM30.7,22.57a10.8,10.8,0,0,0,1.56-6.44,11.49,11.49,0,0,0-2.57-6.44l3-.23c.06,0,.18,0,.43.24a4.35,4.35,0,0,1,.83,1.22,14,14,0,0,1,1.16,4.83,14.27,14.27,0,0,1-.41,5A4.19,4.19,0,0,1,34,22.05c-.2.26-.32.29-.38.3ZM16,26a1.75,1.75,0,0,1-1.88-1.69c0,.06,0-.3.06-.6A6.39,6.39,0,0,1,14.3,23a.83.83,0,0,0,0-.35,1,1,0,0,0-1-1,1.78,1.78,0,0,1-1.8-1.7,1.87,1.87,0,0,1,.36-1.25.88.88,0,0,0,.16-.32,1,1,0,0,0-.69-1.25,1.75,1.75,0,0,1-1.16-2.33l1.09-.08h0a1,1,0,1,0-.18-2l-7.2.55A1.76,1.76,0,0,1,2,11.6,1.77,1.77,0,0,1,3.63,9.65L13,8.94c.24.24.52.57.74.78a1,1,0,1,0,1.39-1.47,26,26,0,0,1-2.48-2.61,5.61,5.61,0,0,1-1.27-2.37,1.13,1.13,0,0,1,.29-.93c.29-.34.46-.4,1.07-.31a9.55,9.55,0,0,1,2.63,1.05c2.19,1.15,5.09,3.07,8.58,4.71,4.44,2.08,6.07,5.27,6.31,8.49a8.5,8.5,0,0,1-7.7,9.25Z"/></g></g></svg>