<svg xmlns="http://www.w3.org/2000/svg" viewBox="0 0 45.75 45.75"><defs><style>.cls-1,.cls-2{fill:#fff;}.cls-1{fill-rule:evenodd;}</style></defs><g id="圖層_2" data-name="圖層 2"><g id="圖層_1-2" data-name="圖層 1"><path class="cls-1" d="M22.88,0A22.88,22.88,0,1,0,45.75,22.88,22.88,22.88,0,0,0,22.88,0Zm0,44.57A21.7,21.7,0,1,1,44.57,22.88,21.7,21.7,0,0,1,22.88,44.57Z"/><path class="cls-2" d="M22,4.11a.27.27,0,0,0-.27.27V7.65a.28.28,0,0,1-.28.27H19.86a.28.28,0,0,1-.28-.27V4.38a.27.27,0,0,0-.27-.27h-.66a.27.27,0,0,0-.27.27V7.65a.28.28,0,0,1-.28.27H16.55a.28.28,0,0,1-.28-.27V4.38A.27.27,0,0,0,16,4.11h-.66a.28.28,0,0,0-.28.27V8.85a.29.29,0,0,0,.28.28h7.28a.29.29,0,0,0,.28-.28V4.38a.28.28,0,0,0-.28-.27Z"/><path class="cls-2" d="M10.9,14.11a.28.28,0,0,0,.28-.28v-.66a.27.27,0,0,0-.28-.27H4.67a.28.28,0,0,0-.28.27v.66a.29.29,0,0,0,.28.28h.9a.28.28,0,0,1,.28.27v7a.28.28,0,0,1-.28.27h-.9a.28.28,0,0,0-.28.27v.66a.28.28,0,0,0,.28.28H10.9a.27.27,0,0,0,.28-.28V22a.27.27,0,0,0-.28-.27H10a.27.27,0,0,1-.27-.27v-7a.27.27,0,0,1,.27-.27ZM8.52,21.43a.28.28,0,0,1-.28.27H7.33a.28.28,0,0,1-.28-.27v-7a.28.28,0,0,1,.28-.27h.91a.28.28,0,0,1,.28.27Z"/><path class="cls-2" d="M22.62,15.55H19.86a.28.28,0,0,1-.28-.27v-.9a.28.28,0,0,1,.28-.27h2.75a.29.29,0,0,0,.28-.28v-.66a.28.28,0,0,0-.28-.27H15.35a.28.28,0,0,0-.28.27v.66a.29.29,0,0,0,.28.28H18.1a.28.28,0,0,1,.28.27v.9a.28.28,0,0,1-.28.27H15.34a.28.28,0,0,0-.28.27V22.6a.28.28,0,0,0,.28.27H16a.27.27,0,0,0,.27-.27V17a.28.28,0,0,1,.28-.27H17a.27.27,0,0,1,.27.27V22.6a.28.28,0,0,0,.28.27h.66a.27.27,0,0,0,.27-.27V17a.27.27,0,0,1,.27-.27h.46a.27.27,0,0,1,.27.27V22.6a.27.27,0,0,0,.27.27h.66a.28.28,0,0,0,.28-.27V17a.27.27,0,0,1,.27-.27h.45a.28.28,0,0,1,.28.27V22.6a.27.27,0,0,0,.27.27h.66a.28.28,0,0,0,.28-.27V15.82A.28.28,0,0,0,22.62,15.55Z"/><circle class="cls-2" cx="7.73" cy="6.62" r="2.72"/></g></g></svg>