<svg xmlns="http://www.w3.org/2000/svg" viewBox="0 0 40.78 40.78"><defs><style>.cls-1{fill-rule:evenodd;}</style></defs><g id="圖層_2" data-name="圖層 2"><g id="圖層_1-2" data-name="圖層 1"><path class="cls-1" d="M20.39,0A20.39,20.39,0,1,0,40.78,20.39,20.42,20.42,0,0,0,20.39,0Zm11.8,13a.59.59,0,0,1-.11.38,9.81,9.81,0,0,1-1.89,2c-.11.08-.29.17-.29.32,0,3.93-1,7.85-3.87,10.7a14.39,14.39,0,0,1-14,3.26,13.13,13.13,0,0,1-2.7-1.08c-.28-.15-.56-.32-.84-.5-.07-.05-.12-.11-.06-.14s.1,0,.32,0a9.56,9.56,0,0,0,4-.52c.71-.25,2.22-.74,2.66-1.41,0,0,0,0,0,0-.17,0-.35,0-.53-.07a5.2,5.2,0,0,1-3.89-3.27c-.06-.13,0-.19.13-.17a5.65,5.65,0,0,0,1.86-.05,2.58,2.58,0,0,1-.63-.2,5,5,0,0,1-3.1-4,3.63,3.63,0,0,1,0-.56c0-.13.07-.17.18-.1a5.18,5.18,0,0,0,1.89.53c-.21-.17-.41-.35-.6-.53a5,5,0,0,1-.85-5.87c.1-.14.16-.14.27,0a15.25,15.25,0,0,0,9.8,5c.11,0,.12,0,.1-.11a5.24,5.24,0,0,1,.05-2,5,5,0,0,1,1-1.94,5.17,5.17,0,0,1,1.62-1.32,5.05,5.05,0,0,1,2-.57,4.81,4.81,0,0,1,2.12.34,5,5,0,0,1,1.38.85,2,2,0,0,1,.25.25.18.18,0,0,0,.2.06A12.19,12.19,0,0,0,31.56,11a.13.13,0,0,1,.12,0c.05,0,0,.09,0,.13a4.3,4.3,0,0,1-.8,1.45c-.23.29-.8,1-1.18,1.05a9.66,9.66,0,0,0,2.4-.68c.09,0,.08-.07.08,0Z"/><path class="cls-1" d="M15.49,30.09Z"/><path class="cls-1" d="M16.29,30.11c.42,0,0,0,0,0Z"/></g></g></svg>