<svg xmlns="http://www.w3.org/2000/svg" viewBox="0 0 40.78 40.78"><defs><style>.cls-1{fill-rule:evenodd;}</style></defs><g id="圖層_2" data-name="圖層 2"><g id="圖層_1-2" data-name="圖層 1"><path class="cls-1" d="M20.39,0A20.39,20.39,0,1,0,40.78,20.39,20.42,20.42,0,0,0,20.39,0ZM26,12.09a.3.3,0,0,1-.3.31H23.28a1.09,1.09,0,0,0-1.09,1.09v2.57h3.49a.31.31,0,0,1,.31.33L25.68,20a.3.3,0,0,1-.3.28H22.19v12a.3.3,0,0,1-.3.31H17.5a.31.31,0,0,1-.31-.31v-12H15a.31.31,0,0,1-.31-.31V16.37a.31.31,0,0,1,.31-.31h2.19V12.57a4.4,4.4,0,0,1,4.4-4.4h4.15a.3.3,0,0,1,.3.31Z"/></g></g></svg>