<svg xmlns="http://www.w3.org/2000/svg" viewBox="0 0 28.06 37.16"><defs><style>.cls-1{fill:#b6272d;}</style></defs><g id="圖層_2" data-name="圖層 2"><g id="圖層_1-2" data-name="圖層 1"><path class="cls-1" d="M28.05,21.06l-.5-6.59a10.25,10.25,0,0,0-2.82-6.29l-.37-4.82a2.64,2.64,0,0,0-1.05-1.81,6,6,0,0,0-2-1A15.74,15.74,0,0,0,15.6.06,15.59,15.59,0,0,0,10,1.42,6.13,6.13,0,0,0,8.2,2.69a2.65,2.65,0,0,0-.75,2l.36,4.73a15,15,0,0,0-1.84,3C4.4,15.7,2.52,18.53,1.28,20.88A10.51,10.51,0,0,0,0,24.14a3.2,3.2,0,0,0,1,2.93,3.35,3.35,0,0,0,2.37.75,6.6,6.6,0,0,0,3.5-1.71L7.05,26l.58,7.69a3.84,3.84,0,0,0,7.66-.58l-.3-4a4,4,0,0,0,.7.05,3.94,3.94,0,0,0,2.91-1.68,3.72,3.72,0,0,0,1.53.23A3.85,3.85,0,0,0,23.49,25a4.14,4.14,0,0,0,1,.08A3.82,3.82,0,0,0,28.05,21.06ZM22.57,6.46a10.72,10.72,0,0,0-6.44-1.55A11.55,11.55,0,0,0,9.69,7.47l-.23-3c0-.07,0-.19.24-.43a4.14,4.14,0,0,1,1.22-.84,14.18,14.18,0,0,1,4.83-1.16,14,14,0,0,1,5,.42,4,4,0,0,1,1.33.64c.26.21.29.32.3.39ZM26,21.21a1.76,1.76,0,0,1-1.69,1.89c.06,0-.3,0-.6-.07a4.73,4.73,0,0,1-.73-.17,1.34,1.34,0,0,0-.35-.05,1,1,0,0,0-1,1A1.79,1.79,0,0,1,20,25.66a1.87,1.87,0,0,1-1.25-.37,1.07,1.07,0,0,0-.32-.16,1,1,0,0,0-1.25.69A1.75,1.75,0,0,1,14.83,27l-.08-1.08v0a1,1,0,1,0-2,.18l.55,7.2a1.75,1.75,0,0,1-1.68,1.89,1.76,1.76,0,0,1-1.95-1.61l-.71-9.34c.24-.25.57-.52.78-.74a1,1,0,1,0-1.47-1.39,27.16,27.16,0,0,1-2.61,2.47A5.61,5.61,0,0,1,3.27,25.8a1.13,1.13,0,0,1-.93-.29c-.34-.28-.4-.46-.31-1.07a9.52,9.52,0,0,1,1.05-2.62c1.15-2.19,3.07-5.1,4.71-8.59,2.08-4.44,5.27-6.06,8.49-6.31a8.5,8.5,0,0,1,9.25,7.7Z"/></g></g></svg>