<svg xmlns="http://www.w3.org/2000/svg" viewBox="0 0 386 43"><defs><style>.cls-1,.cls-3{fill:none;stroke:#000;stroke-miterlimit:10;}.cls-2{fill:#fff;}.cls-3{stroke-width:2px;}</style></defs><g id="圖層_2" data-name="圖層 2"><g id="圖層_1-2" data-name="圖層 1"><rect width="82" height="42"/><rect class="cls-1" x="303.5" y="0.5" width="82" height="42"/><path class="cls-2" d="M18.17,25.62c-.65.27-1.72.77-2.85,1.16L13.56,25c1.79-.65,3.36-1.18,4.61-1.78l0-6.36H14.33V14.71h3.84V9h2.29v5.74H23v2.17H20.46v5.23c.56-.24,1.22-.56,2-.89V19.08h7V17.5H24.05V15.33h5.41V13.82h-7V11.68l7,0V8.8h2.29v2.85H39.3v2.17H31.75v1.54H38v3.72h2.59v2.14l-2.59,0v4.07H31.75v2H39l0,2.11H31.75v2.71c2.86.09,6-.06,9.25-.12l-.8,2.35H31.75a8.53,8.53,0,0,1-5.91-2.65,13.92,13.92,0,0,1-3.54,4.08L20.52,34c3.15-1.69,4.19-4.7,4.16-8.14.83.18,1.45.2,2.23.44a12.3,12.3,0,0,1-.36,3.21,7.14,7.14,0,0,0,2.91,2.14V25.32l-5.38,0v-2.2l5.38,0V21.25H23v2.11l-2.55,1.19v8.53a2.66,2.66,0,0,1-1.34,2.2c-1,.53-2.26.21-3.45.33l-.8-2.32a21.89,21.89,0,0,0,2.73.06.7.7,0,0,0,.57-.72ZM31.72,17.5v1.61l3.9,0V17.5Zm0,3.72v2h3.87V21.25Z"/><path class="cls-2" d="M66.18,32.1l4.25-.24-1.13,2.5H61.12c-4.66,0-9-.24-12.36-2.59a22.13,22.13,0,0,1-3.42,4.07L43.5,34.21c2.88-2.56,4.81-5.44,5.26-8.62H44.45V23.51a22.86,22.86,0,0,0,4-5.35h-4.6V16h7.19v1.9a20.21,20.21,0,0,1-3.78,5.59h3.9a18.07,18.07,0,0,1-1.46,6.24,13.72,13.72,0,0,0,8.8,2.44ZM47.81,15.25a8.9,8.9,0,0,0-3.21-5.06l2-1.07a14.11,14.11,0,0,1,3.15,5.06Zm9.69,4.42A9.51,9.51,0,0,0,55,17.62l.86-.59L51.64,17V14.8h7.58V13.31H52.83V11.17l6.42,0,0-2.37,2.26,0v2.34l6.48,0v2.14H61.45l0,1.49h7.61V17h-4l.44.21a9.43,9.43,0,0,1-1.66,2.46l4.1,0v2.14H61.45V23.3h5.68v2.17H61.45V27h8v2.17l-8,0v2.76H59.22l0-2.73H51.41V27h7.81V25.47H53.66V23.33l5.56,0V21.81H52.39V19.67Zm.06-2.7a10.88,10.88,0,0,1,2.08,2.7h1.6A7.12,7.12,0,0,0,63.18,17Z"/><path d="M314.71,25.15l-2.83,1.21-1.28-1.42,4.09-1.7V18.59l-1.59,0a17.18,17.18,0,0,1-1.47,3.54L310,21.26a14.54,14.54,0,0,0,2.14-6.76l1.68.46a15.2,15.2,0,0,1-.25,1.95l1.12,0V12.11l1.73,0,0,4.81h2.07v1.68h-2.07v3.82l2.25-.88v1.84l-2.25,1v8.28h-1.75Zm3.66.2V23.7l7.8,0V21.6h1.72l0,2.1h2.67v1.65h-2.67v5a1.77,1.77,0,0,1-1.35,1.95,12.56,12.56,0,0,1-2.92.18l-.76-1.77c1.1.07,1.86.12,2.66.1.33,0,.63-.19.63-.6V25.35Zm11.75-5.68v1.68H318.83V19.67h4.64l0-3.08h-3.82V14.91h3.79V12l1.75,0v3h4l0,1.68h-4.07v3.08Zm-7.22,10a8.61,8.61,0,0,0-3.66-2.9l1.2-1.13a8.92,8.92,0,0,1,3.79,2.9Z"/><path d="M333,31.45a8,8,0,0,0,4.35-3.75l1.42.9a9.24,9.24,0,0,1-4.48,4.18Zm2.55-5.78,0-9.58-1.73,0V14.43h1.73l0-2.3,1.73,0,0,2.3,4.23,0v-2.3h1.77l0,2.3h1.54v1.68l-1.52,0,0,9.58h1.84v1.66H333.44V25.67Zm1.75-3.77,4.25,0,0-2.14h-4.25Zm0,3.75,4.25,0V23.58H337.3Zm4.25-7.54v-2H337.3v2ZM343,31.52a7.22,7.22,0,0,0-3.41-2.81l1.24-1.06a7.51,7.51,0,0,1,3.48,2.81Zm10.37-18.17a14.79,14.79,0,0,1-6.23,2.46v2.92l6.48,0,0,1.68-2.49,0V32.53h-1.74l0-12.12h-2.28l0,6a9.76,9.76,0,0,1-2,6.21l-1.65-.92c1.93-2,1.81-4.63,1.81-6.51V14.34c1.63,0,5.57-1,6.76-2.35Z"/><path d="M361.66,12l0,4.42h2.23v1.7h-2.25v4.05l2.46-.95V23l-2.46,1V30.3a2.32,2.32,0,0,1-1.61,2.09,11.47,11.47,0,0,1-2.53.14L357,30.71a10,10,0,0,0,2.41,0,.84.84,0,0,0,.49-.71V24.73l-2.65,1L356,24.27c1.47-.5,2.76-1,3.89-1.47l0-4.69h-3.24l0-1.75h3.22l0-4.37Zm7.61,17.48a28.19,28.19,0,0,0,3.08-11.31c.71.11,1.19.29,1.86.41a31.2,31.2,0,0,1-1.49,7.08,33.81,33.81,0,0,1-1.57,3.82h5.5v1.77H363.08V29.47ZM370.16,16l5.68,0,0,1.77H364V16h5.49a8.51,8.51,0,0,0-3.26-3.15l1.28-1.17a7.16,7.16,0,0,1,3.66,3.49Zm-1,11.41a18.35,18.35,0,0,1-1.84.8,16.27,16.27,0,0,0-2.37-9,7.17,7.17,0,0,1,1.57-.83A17.26,17.26,0,0,1,369.13,27.4Z"/><line class="cls-3" x1="108" y1="21" x2="274.83" y2="21"/><polygon points="268.2 29.18 266.84 27.71 274.06 21 266.84 14.29 268.2 12.82 277 21 268.2 29.18"/></g></g></svg>