<svg xmlns="http://www.w3.org/2000/svg" viewBox="0 0 85.85 21.5"><defs><style>.cls-1{fill:#b6272d;}</style></defs><g id="圖層_2" data-name="圖層 2"><g id="圖層_1-2" data-name="圖層 1"><path class="cls-1" d="M3.12,9V21.1H0V1H8.8V9Zm0-5.83V4H5.81V3.21ZM5.81,6.8V6H3.12V6.8Zm7,9.55v4.36H10V16.35H8.49a7.25,7.25,0,0,1-2.75,4.8,10.36,10.36,0,0,0-2-1.81,4.71,4.71,0,0,0,2-3H3.85V13.77h2V12.52H4.14V10H14.65v2.49H12.83v1.25H15v2.58ZM10,13.77V12.52H8.58v1.25Zm8.87,3.74c0,1.52-.24,2.38-1.12,2.91A7.14,7.14,0,0,1,14,21a10.87,10.87,0,0,0-.93-3.14c.84,0,1.89,0,2.22,0s.44-.13.44-.44V9.11H10V1h9ZM13,3.21V4h2.77V3.21Zm2.77,3.66V6H13v.89Z"/><path class="cls-1" d="M30.1,11.68H40.75v9.4H37.69v-.84H33v.84H30.1V17l-1.76,2.24a26.78,26.78,0,0,0-1.83-2A15.24,15.24,0,0,1,23,21.06a10.94,10.94,0,0,0-2.14-2.16,12.31,12.31,0,0,0,3.5-3.83c-1.08-1-2.16-2-3.08-2.9.37-1.28.75-2.88,1.08-4.62l-1.15.09-.28-2.82,1.91-.09c.22-1.5.4-3,.49-4.4l2.94.18c-.13,1.29-.3,2.68-.52,4.09l.7,0V3.3h2.84V4.4l1,0,0,2.66-.94.06a5.86,5.86,0,0,1,0,.73c.53-.15.91-.59,1.41-1.36A28.21,28.21,0,0,0,33.35.22l3.35.86a37,37,0,0,1-3.06,6l4-.27c-.48-.81-1-1.6-1.52-2.31l2.55-1.27a24.36,24.36,0,0,1,3.63,6.29L39.51,11A11.8,11.8,0,0,0,39,9.64c-6.67.61-7.88.77-8.78,1.12a30.52,30.52,0,0,0-1-2.95,21.81,21.81,0,0,1-1.27,6.56c.83.77,1.6,1.49,2.18,2.13Zm-4.56.6a18.94,18.94,0,0,0,.84-5l-1.17.09c-.26,1.37-.55,2.69-.83,3.87ZM33,14.48v3h4.69v-3Z"/><path class="cls-1" d="M58.92,14.57h4.6v2.37h-4.6v1.63c0,1.37-.24,2.09-1.26,2.51A10,10,0,0,1,54,21.5a11,11,0,0,0-1-2.75c.88.06,2.11.06,2.42,0s.44-.07.44-.31V16.94H50.25a14.88,14.88,0,0,1,1.83,1.63l-2.34,1.94A16.57,16.57,0,0,0,47,17.91l1.19-1H43.3V14.57H55.84v-.44h-.4a13.63,13.63,0,0,1-5.94-.93,6.82,6.82,0,0,0-2-.9c-.66,0-1.78,1.14-2.68,2.2L43.23,12A15.72,15.72,0,0,1,45,10.74a9.12,9.12,0,0,0,1.47-2.22H43.38c.49-.86,1-2,1.54-3.06h-1.8V3.23H45c-.2-.66-.53-1.54-.73-2.22L46.9.2c.29.75.69,1.76.91,2.4L46,3.23h2.84c-.46,1-1,2.07-1.45,3.06h.68l.42-.13L50,6.73a13.8,13.8,0,0,1-1.52,3.41c.38.18.82.42,1.41.71a14.17,14.17,0,0,0,5.66.75A67.16,67.16,0,0,0,64,11.05a10.59,10.59,0,0,0-.77,2.83c-1,.07-2.66.16-4.31.2ZM54.58,4H49.32V1.89h2.91c-.18-.44-.4-.9-.6-1.3L54.17,0a12,12,0,0,1,1,1.89h2.36a13.56,13.56,0,0,0,.79-1.8l3,.44c-.3.5-.61,1-.88,1.36h3V4H57.47l-.25.49h4.56v6.64h-11V4.47h3.7ZM58.7,5.79h-5v.48h5Zm0,1.73h-5V8h5Zm0,1.77h-5v.52h5Z"/><path class="cls-1" d="M82.37,18.53c.64,0,.77-.22.88-1.46a7.88,7.88,0,0,0,2.6.93c-.31,2.27-1.08,2.88-3.15,2.88h-3c-2.93,0-3.65-.7-3.65-2.95V17.4h-2c-.64,2.12-2.27,3.19-7.92,3.7a7.71,7.71,0,0,0-1.34-2.42c4.13-.15,5.45-.48,6-1.28H68.27V9.84H82.55V17.4H79.2v.51c0,.57.16.62,1,.62Zm-7-9.18H66V.81h9.18V2.55H72.29v.6h2.56v.13a7.08,7.08,0,0,0,2.26-3l2.71.44c-.07.2-.16.38-.24.57h5.76V3.17H78.52c-.09.15-.22.31-.33.46h6.2V5.32h-7V4.51a10.68,10.68,0,0,1-.92.84,9,9,0,0,0-1.67-1.57V6.93H72.29v.71h3.08Zm-6.69-6.8v.6h1.15v-.6Zm0,2.18v.64h3.5V4.73Zm0,2.91h1.15V6.93H68.68Zm2.6,4.26h8.1v-.52h-8.1Zm0,2h8.1v-.52h-8.1Zm0,2h8.1v-.52h-8.1Zm4.8-10.1H85V9.33H76.08Zm2,2.18h.6V7.13h-.6Zm2,0h.62V7.13h-.62Zm2.07,0h.61V7.13h-.61Z"/></g></g></svg>