<svg xmlns="http://www.w3.org/2000/svg" viewBox="0 0 397.5 43"><defs><style>.cls-1,.cls-3{fill:none;stroke:#fff;stroke-miterlimit:10;}.cls-2{fill:#fff;}.cls-3{stroke-width:2px;}</style></defs><g id="圖層_2" data-name="圖層 2"><g id="圖層_1-2" data-name="圖層 1"><rect class="cls-1" x="0.5" y="0.5" width="82" height="42"/><rect x="300" y="1" width="97.5" height="42"/><path class="cls-2" d="M22.36,24.92c-.51.2-1.34.59-2.21.89l-1.36-1.35c1.38-.51,2.6-.92,3.57-1.38l0-4.92h-3V16.48h3V12h1.77v4.44h2v1.68h-2v4c.43-.18.94-.43,1.54-.69V19.86H31.1V18.64H26.91V17H31.1V15.79H25.65V14.13l5.45,0V11.9h1.77v2.21h5.84v1.68H32.87V17h4.8v2.88h2v1.65l-2,0v3.15h-4.8v1.54h5.58l0,1.63H32.87V30c2.2.07,4.62,0,7.15-.09l-.62,1.82H32.87a6.64,6.64,0,0,1-4.58-2.05,10.54,10.54,0,0,1-2.74,3.15l-1.38-1.36c2.44-1.31,3.25-3.63,3.22-6.3a17.63,17.63,0,0,1,1.73.35A9.74,9.74,0,0,1,28.84,28a5.6,5.6,0,0,0,2.26,1.66V24.69l-4.17,0V23l4.17,0V21.54h-5v1.63l-2,.92v6.6a2,2,0,0,1-1,1.7c-.78.41-1.74.16-2.66.25l-.63-1.79a17.48,17.48,0,0,0,2.12,0,.53.53,0,0,0,.44-.55Zm10.48-6.28v1.24l3,0V18.64Zm0,2.87V23h3V21.54Z"/><path class="cls-2" d="M59.5,29.93l3.29-.18-.88,1.93H55.59c-3.61,0-6.94-.19-9.57-2a16.9,16.9,0,0,1-2.64,3.15L42,31.56A11.24,11.24,0,0,0,46,24.89H42.69V23.28a17.75,17.75,0,0,0,3.13-4.14H42.25V17.49h5.57V19a15.76,15.76,0,0,1-2.92,4.32h3a13.78,13.78,0,0,1-1.13,4.83A10.59,10.59,0,0,0,53.59,30Zm-14.21-13A6.86,6.86,0,0,0,42.8,13l1.59-.83a11.07,11.07,0,0,1,2.44,3.91Zm7.5,3.43a7.08,7.08,0,0,0-2-1.59l.67-.46-3.25-.05V16.55h5.87V15.4H49.17V13.74l5,0,0-1.84,1.75,0v1.82l5,0V15.4h-5l0,1.15h5.88v1.67H58.67l.35.16a7.47,7.47,0,0,1-1.29,1.91l3.17,0V22H55.84v1.15h4.39V24.8H55.84V26h6.21v1.68l-6.18,0v2.14H54.12l0-2.12H48.07V26h6V24.8h-4.3V23.15l4.3,0V22H48.83V20.32Zm0-2.1a8.33,8.33,0,0,1,1.61,2.1h1.24a5.63,5.63,0,0,0,1.5-2.1Z"/><path class="cls-2" d="M322.67,25.06A20.15,20.15,0,0,1,325,28.68a7.42,7.42,0,0,0-3.31,1.86,13.61,13.61,0,0,0-2.64-4.38l2.29-1-2.93-.06v-2l-1.74.66v9.81H312.9V25.12c-1.22.37-2.55.95-3.66,1.3l-1.1-4.15c1.19-.23,2.35-.58,3.6-.87l1.16-.26V16.85H312a26.94,26.94,0,0,1-1,4.32,6.1,6.1,0,0,0-3.31-1.59A27.25,27.25,0,0,0,308.9,10l3.45.46v2.93h.55V8.93c0-.49-.58-.29-.58-.78,0-.32.38-.32.72-.32h3.63v5.51h2V16h4.9v-1.8h-4.52V10.47h4.49l0-1.54c0-.35-.61-.23-.61-.64s.32-.49.73-.49h3.74v2.67h4.76v3.65l-4.76,0V16h6.18v3.6h-3.19v1.91h3.22v3.6h-3.22V31c0,1.31-1.48,1.86-2.44,2.18a18.58,18.58,0,0,1-3.13.44,9.36,9.36,0,0,0-1.57-3.95,12.1,12.1,0,0,0,2.76,0,.56.56,0,0,0,.38-.55V25.06Zm-6-8.21v3l1.51-.56V16.85Zm2.12,2.7v1.91h7.66V19.55Z"/><path class="cls-2" d="M342.92,10.67h2.32V9.1c0-.43-.44-.2-.44-.69,0-.26.2-.35.49-.35l3.66,0v2.58h1.45v3.42h-1.51v8.59h1.83V26a17.15,17.15,0,0,0,.35-3.14V9.8a22.24,22.24,0,0,0,8.7-2.12l2.67,3a50.37,50.37,0,0,1-7.78,2.23v2.85l8.18,0v3.74h-2.67V33.79l-3.65,0,0-14.24h-1.89V24a19.88,19.88,0,0,1-3,9.8,12.93,12.93,0,0,0-3.28-2.18c.26-.46.58-.89.81-1.3a4.6,4.6,0,0,0-1.91,1.45,14.07,14.07,0,0,1-2.9-4.09l2.55-1.13L341,26.45l2.67,1.16a18.36,18.36,0,0,1-3.63,5.69A8.55,8.55,0,0,0,337,30.86a13.17,13.17,0,0,0,3.3-4.41h-3.16V22.68h2V14.09h-1.56V10.64h1.68V9.19c0-.4-.52-.38-.52-.72s.17-.41.52-.41h3.63Zm0,3.42v.84h2.32v-.84Zm0,3.86v.81h2.32V18Zm0,3.89v.84h2.32v-.84Zm4.49,4.64A11.53,11.53,0,0,0,349.79,29a9.94,9.94,0,0,0,.78-2.52Z"/><path class="cls-2" d="M372.76,30.8c0,1.63-3,2.06-4.73,2.47a13.19,13.19,0,0,0-1.71-4.35l2.29-.09a.45.45,0,0,0,.46-.46V24.13c-.93.29-1.68.52-2.49.81l-.9-4.35,3.39-.84v-3.6l-3.19,0V12.47H369V8.67a.78.78,0,0,0-.17-.46c-.12-.24,0-.41.17-.41h3.69v4.67h2.52v3.65h-2.46v2.64c1-.29,1.88-.55,2.84-.78v3.83l-2.87,1Zm18.76-1.74,0,3.77H374.44V29.06H383a58.75,58.75,0,0,0,1.82-13.14l4.27.81c-.35,3.43-1.39,9.72-2.41,12.33ZM381.46,11.83c-.23-1.16-.55-2.32-.87-3.45,1.27-.32,2.58-.52,3.88-.81.44,1.48.73,2.84,1,4.29h5.66v3.77H375.77v-3.8Zm.9,15.49a27.88,27.88,0,0,0-3.95.47A33.1,33.1,0,0,0,376.82,17c1.16-.14,2.29-.31,3.48-.43A36.63,36.63,0,0,1,382.36,27.32Z"/><line class="cls-3" x1="108.5" y1="21.5" x2="275.33" y2="21.5"/><polygon class="cls-2" points="268.7 29.68 267.34 28.21 274.56 21.5 267.34 14.79 268.7 13.32 277.5 21.5 268.7 29.68"/></g></g></svg>